<mxfile host="app.diagrams.net" modified="2022-03-10T14:23:10.531Z" agent="5.0 (X11)" etag="VyR1FX_KsopEvLOwpMfx" version="17.1.0" type="github">
  <diagram id="pYEFzojjIVukYuDD5tcp" name="Page-1">
    <mxGraphModel dx="1418" dy="733" grid="1" gridSize="10" guides="1" tooltips="1" connect="1" arrows="1" fold="1" page="1" pageScale="1" pageWidth="850" pageHeight="1100" math="0" shadow="0">
      <root>
        <mxCell id="0" />
        <mxCell id="1" parent="0" />
        <mxCell id="7O6GCGja9Kle5Vo86Y5n-1" value="" style="endArrow=none;html=1;curved=1;" edge="1" parent="1">
          <mxGeometry width="50" height="50" relative="1" as="geometry">
            <mxPoint y="1080" as="sourcePoint" />
            <mxPoint as="targetPoint" />
            <Array as="points">
              <mxPoint x="160" y="540" />
            </Array>
          </mxGeometry>
        </mxCell>
        <mxCell id="7O6GCGja9Kle5Vo86Y5n-4" style="edgeStyle=none;curved=1;orthogonalLoop=1;jettySize=auto;html=1;exitX=0.07;exitY=0.93;exitDx=0;exitDy=0;exitPerimeter=0;elbow=vertical;dashed=1;endArrow=none;endFill=0;" edge="1" parent="1" source="7O6GCGja9Kle5Vo86Y5n-3">
          <mxGeometry relative="1" as="geometry">
            <mxPoint x="70" y="710" as="targetPoint" />
          </mxGeometry>
        </mxCell>
        <mxCell id="7O6GCGja9Kle5Vo86Y5n-5" style="edgeStyle=none;curved=1;orthogonalLoop=1;jettySize=auto;html=1;exitX=0.07;exitY=0.93;exitDx=0;exitDy=0;exitPerimeter=0;dashed=1;endArrow=none;endFill=0;elbow=vertical;" edge="1" parent="1" source="7O6GCGja9Kle5Vo86Y5n-3">
          <mxGeometry relative="1" as="geometry">
            <mxPoint x="70" y="380" as="targetPoint" />
          </mxGeometry>
        </mxCell>
        <mxCell id="7O6GCGja9Kle5Vo86Y5n-3" value="" style="fontColor=#0066CC;verticalAlign=top;verticalLabelPosition=bottom;labelPosition=center;align=center;html=1;outlineConnect=0;fillColor=#CCCCCC;strokeColor=#6881B3;gradientColor=none;gradientDirection=north;strokeWidth=2;shape=mxgraph.networks.satellite;rotation=45;" vertex="1" parent="1">
          <mxGeometry x="260" y="490" width="100" height="100" as="geometry" />
        </mxCell>
      </root>
    </mxGraphModel>
  </diagram>
</mxfile>
